<svg xmlns="http://www.w3.org/2000/svg" width="24.749" height="24.749" viewBox="0 0 24.749 24.749">
  <path id="Icon_awesome-plus" data-name="Icon awesome-plus" d="M16.25,8.125H10.625V2.5a1.25,1.25,0,0,0-1.25-1.25H8.125A1.25,1.25,0,0,0,6.875,2.5V8.125H1.25A1.25,1.25,0,0,0,0,9.375v1.25a1.25,1.25,0,0,0,1.25,1.25H6.875V17.5a1.25,1.25,0,0,0,1.25,1.25h1.25a1.25,1.25,0,0,0,1.25-1.25V11.875H16.25a1.25,1.25,0,0,0,1.25-1.25V9.375A1.25,1.25,0,0,0,16.25,8.125Z" transform="translate(-0.884 11.49) rotate(-45)" fill="#9f9f9f"/>
</svg>
