<svg xmlns="http://www.w3.org/2000/svg" xmlns:xlink="http://www.w3.org/1999/xlink" width="67.917" height="81.283" viewBox="0 0 67.917 81.283"><defs><clipPath id="a"><rect width="67.917" height="81.283" transform="translate(0 0)" fill="none" stroke="#1e4ba8" stroke-width="1"/></clipPath></defs><g transform="translate(3.037 -2.717)"><g transform="translate(-3.037 2.717)"><g clip-path="url(#a)"><path d="M33.959,81.284a2.2,2.2,0,0,1-.9-.195,150.772,150.772,0,0,1-16.144-8.707A68,68,0,0,1,5.623,63.845,24.494,24.494,0,0,1,1.674,59,10.679,10.679,0,0,1,0,53.577V15a2.2,2.2,0,0,1,1.375-2.037L33.138.159a2.2,2.2,0,0,1,1.642,0l31.762,12.8A2.2,2.2,0,0,1,67.918,15V53.577A10.679,10.679,0,0,1,66.244,59a24.494,24.494,0,0,1-3.95,4.842,68,68,0,0,1-11.288,8.537,150.772,150.772,0,0,1-16.144,8.707A2.2,2.2,0,0,1,33.959,81.284ZM4.394,16.479v37.1c0,1.9,1.483,4.365,4.29,7.116a63.577,63.577,0,0,0,10.526,7.944,149.846,149.846,0,0,0,14.75,8.027,149.847,149.847,0,0,0,14.75-8.027,63.577,63.577,0,0,0,10.526-7.944c2.807-2.751,4.29-5.211,4.29-7.116v-37.1L33.959,4.564Z" fill="#131246"/><path d="M32.9,55.7a2.2,2.2,0,0,1-1.14-.319l-12.418-7.54a2.2,2.2,0,0,1,2.28-3.755L32.1,50.446,45.4,26.917a2.2,2.2,0,0,1,3.824,2.162L34.814,54.58A2.2,2.2,0,0,1,32.9,55.7Z" fill="#1e4ba8"/></g></g></g></svg>