<svg xmlns="http://www.w3.org/2000/svg" xmlns:xlink="http://www.w3.org/1999/xlink" width="99.831" height="70" viewBox="0 0 99.831 70"><defs><clipPath id="a"><rect width="99.831" height="70" fill="none" stroke="#131246" stroke-width="1"/></clipPath></defs><g clip-path="url(#a)"><path d="M31.931,65.147a9,9,0,0,1-8.99-8.989A8.976,8.976,0,0,1,38.7,50.269,9.1,9.1,0,0,1,40,60.23a8.165,8.165,0,0,1-4.012,4.008A9.724,9.724,0,0,1,31.931,65.147Zm0-13.978a4.887,4.887,0,0,0-3.73,1.71l-.031.035a4.86,4.86,0,0,0-1.228,3.244,5,5,0,0,0,4.99,4.989,5.755,5.755,0,0,0,2.4-.547,4.219,4.219,0,0,0,2.042-2.046,5.086,5.086,0,0,0-.675-5.647l-.018-.021A4.933,4.933,0,0,0,31.93,51.169Z" transform="translate(2.296 4.527)" fill="#131246"/><path d="M70.331,65.278a9,9,0,0,1-8.989-8.99A9.032,9.032,0,0,1,70.331,47.3a8.953,8.953,0,0,1,6.617,2.919,9.1,9.1,0,0,1,1.507,10.033,8.151,8.151,0,0,1-4.023,4.1A9.737,9.737,0,0,1,70.331,65.278Zm0-13.979a4.934,4.934,0,0,0-3.651,1.615l-.023.025a4.874,4.874,0,0,0-1.315,3.349,5,5,0,0,0,4.989,4.99,5.768,5.768,0,0,0,2.424-.559A4.209,4.209,0,0,0,74.8,58.627a5.475,5.475,0,0,0,.448-3.188,4.887,4.887,0,0,0-1.239-2.508l-.017-.018A4.946,4.946,0,0,0,70.331,51.3Z" transform="translate(5.831 4.539)" fill="#131246"/><path d="M93.787,38.148h-4V34.385L76.429,15.8a2.375,2.375,0,0,0-1.922-.986H63.651v-4H74.507a6.384,6.384,0,0,1,5.169,2.65L93.787,33.1Z" transform="translate(5.86 1.18)" fill="#131246"/><path d="M24.784,57.549H19.068a8.5,8.5,0,0,1-8.486-8.486V29.818a2,2,0,0,1,4,0V49.063a4.491,4.491,0,0,0,4.486,4.486h5.716a2,2,0,0,1,0,4Z" transform="translate(1.158 2.745)" fill="#131246"/><path d="M25.65,2H0A2,2,0,0,1-2,0,2,2,0,0,1,0-2H25.65a2,2,0,0,1,2,2A2,2,0,0,1,25.65,2Z" transform="translate(42.459 58.294)" fill="#131246"/><path d="M93.636,60.11H84.1a2,2,0,0,1,0-4h9.534a1.829,1.829,0,0,0,1.827-1.827V38.946H69.715a2.576,2.576,0,0,1-2.573-2.573V8.454A4.465,4.465,0,0,0,62.677,4H2A2,2,0,0,1,2,0H62.677a8.455,8.455,0,0,1,8.465,8.454V34.946h28.32V54.284A5.833,5.833,0,0,1,93.636,60.11Z" transform="translate(0.184 0.184)" fill="#131246"/><path d="M15.779,2H0A2,2,0,0,1-2,0,2,2,0,0,1,0-2H15.779a2,2,0,0,1,2,2A2,2,0,0,1,15.779,2Z" transform="translate(11.458 22.991)" fill="#1e4ba8"/><path d="M27.957,2H0A2,2,0,0,1-2,0,2,2,0,0,1,0-2H27.957a2,2,0,0,1,2,2A2,2,0,0,1,27.957,2Z" transform="translate(6.976 13.557)" fill="#1e4ba8"/></g></svg>