<svg xmlns="http://www.w3.org/2000/svg" width="25.042" height="22.028" viewBox="0 0 25.042 22.028">
  <g transform="translate(-2497.002 394.245)">
    <path id="Icon_awesome-heart" data-name="Icon awesome-heart" d="M21.707,3.686a6.421,6.421,0,0,0-8.762.639l-.925.953-.92-.953a6.421,6.421,0,0,0-8.762-.639,6.742,6.742,0,0,0-.465,9.762l9.086,9.381a1.472,1.472,0,0,0,2.127,0l9.086-9.381a6.738,6.738,0,0,0-.46-9.762Z" transform="translate(2497.499 -396)" fill="#1e4ba8"/>
    <path id="Icon_awesome-heart_-_Outline" data-name="Icon awesome-heart - Outline" d="M6.376,1.755a6.943,6.943,0,0,1,5.088,2.226l.557.577.561-.578a6.942,6.942,0,0,1,5.087-2.226h0A6.94,6.94,0,0,1,21.88,3.186h.013l.146.122a7.238,7.238,0,0,1,.494,10.486l-9.088,9.383a1.972,1.972,0,0,1-2.847,0L1.514,13.8a7.242,7.242,0,0,1,.5-10.488l.012-.01A6.939,6.939,0,0,1,6.376,1.755ZM12.019,6,10.732,4.664A5.921,5.921,0,0,0,2.659,4.07,6.242,6.242,0,0,0,2.234,13.1l9.084,9.379a.972.972,0,0,0,1.407,0L21.813,13.1a6.238,6.238,0,0,0-.378-8.992l-.043-.033a5.921,5.921,0,0,0-8.08.589l-.009.009Z" transform="translate(2497.499 -396)" fill="#1e4ba8"/>
  </g>
</svg>
