<svg xmlns="http://www.w3.org/2000/svg" width="32" height="32" viewBox="0 0 32 32"><g transform="translate(-320 -7882)"><path d="M120,10.338A5.666,5.666,0,1,1,114.333,16,5.673,5.673,0,0,1,120,10.338m0-2A7.666,7.666,0,1,0,127.667,16,7.667,7.667,0,0,0,120,8.338" transform="translate(216 7882)" fill="#fff"/><path d="M128.88,4.663a1.37,1.37,0,1,1-1.37,1.37,1.371,1.371,0,0,1,1.37-1.37m0-1.2a2.57,2.57,0,1,0,2.57,2.57,2.57,2.57,0,0,0-2.57-2.57" transform="translate(216 7882)" fill="#fff"/><path d="M129.993,2.005A4.005,4.005,0,0,1,134,6V26A4.011,4.011,0,0,1,129.993,30H110A4.006,4.006,0,0,1,106,26V6a4,4,0,0,1,4-3.995Zm0-2H110a6,6,0,0,0-6,6V26a6,6,0,0,0,6,6.007h20A6,6,0,0,0,136,26V6a6,6,0,0,0-6.007-6" transform="translate(216 7881.995)" fill="#fff"/></g></svg>