<svg xmlns="http://www.w3.org/2000/svg" xmlns:xlink="http://www.w3.org/1999/xlink" width="80.032" height="88.865" viewBox="0 0 80.032 88.865"><defs><clipPath id="a"><rect width="80.032" height="88.865" transform="translate(0 0)" fill="none"/></clipPath></defs><g transform="translate(0 0)" clip-path="url(#a)"><path d="M39.987,88.866a2,2,0,0,1-1.135-.354C24.832,78.84,3.691,64.305,1.459,62.9-.09,62.4-.083,61.533.059,42.376c.067-9.181.2-18.462.2-18.554a2,2,0,0,1,3.121-1.627L41.108,47.729a2,2,0,0,1,.879,1.656V86.866a2,2,0,0,1-2,2M4.123,59.889C6.56,61.467,14,66.513,37.987,83.056V50.447L4.212,27.584c-.161,12.163-.29,28.522-.089,32.305m-1.262-.744a3.331,3.331,0,0,1,.688.378,1.971,1.971,0,0,0-.688-.378m-.026-.008.007,0-.007,0" fill="#231f20"/><path d="M40.044,88.866a2,2,0,0,1-2-2V49.385a2,2,0,0,1,.878-1.656L76.646,22.195a2,2,0,0,1,3.121,1.627c0,.092.138,9.373.206,18.554.142,19.144.148,20.023-1.4,20.524-2.233,1.4-23.373,15.94-37.393,25.612a2,2,0,0,1-1.135.354m2-38.419V83.056C66.038,66.51,73.474,61.465,75.908,59.888c.2-3.781.072-20.141-.089-32.3Zm35.13,8.7a1.965,1.965,0,0,0-.693.379,3.161,3.161,0,0,1,.693-.379m0,0h0Zm.014,0-.013,0,.013,0" fill="#231f20"/><path d="M40.044,51.385a2,2,0,0,1-1.12-.342L1.144,25.508a2,2,0,0,1,.118-3.387L38.986.27a2,2,0,0,1,2,0L78.768,22.12a2,2,0,0,1,.12,3.387L41.165,51.042a2,2,0,0,1-1.121.343M6.029,23.982,40.043,46.971,74,23.984,39.989,4.311Z" fill="#231f20"/><path d="M25.225,64.58a2,2,0,0,1-1.8-1.127l-3.851-7.944-2.543,1.942a2,2,0,0,1-3.214-1.59V33.675a2,2,0,0,1,.931-1.691L52.069,8.412a2,2,0,0,1,2.069-.04L63.183,13.6A2,2,0,0,1,63.294,17L27.226,41.127V62.58a2,2,0,0,1-2,2M20.306,50.435a1.973,1.973,0,0,1,.463.055,2,2,0,0,1,1.337,1.072l1.12,2.311V40.059a2,2,0,0,1,.888-1.662L58.4,15.457,53.183,12.44,17.818,34.778v17.04l1.274-.973a2.006,2.006,0,0,1,1.214-.41" fill="#1e4ba8"/><path d="M49.982,62.7a2,2,0,0,1-1.115-3.662l13.9-9.311a2,2,0,0,1,2.227,3.325l-13.9,9.31a1.986,1.986,0,0,1-1.111.338" fill="#231f20"/><path d="M49.982,68.671a2,2,0,0,1-1.115-3.661l6.95-4.656a2,2,0,0,1,2.227,3.322l-6.951,4.656a1.98,1.98,0,0,1-1.111.339" fill="#231f20"/></g></svg>