<svg id="Component_68_3" data-name="Component 68 – 3" xmlns="http://www.w3.org/2000/svg" width="32" height="32" viewBox="0 0 32 32">
  <path id="Path_1111" data-name="Path 1111" d="M181.99,0h-20A6,6,0,0,0,156,6V26a5.99,5.99,0,0,0,5.99,6h20A5.994,5.994,0,0,0,188,26V6a6,6,0,0,0-6.01-6m-16.5,27.27h-4.75V12h4.75ZM165.06,9.1a2.711,2.711,0,0,1-1.94.81,2.75,2.75,0,1,1,2.75-2.75,2.711,2.711,0,0,1-.81,1.94m18.21,18.17h-4.75V19.84c0-1.77-.03-4.05-2.46-4.05-2.47,0-2.85,1.93-2.85,3.92v7.56h-4.74V12h4.55v2.09h.06a4.99,4.99,0,0,1,4.49-2.47c4.81,0,5.7,3.16,5.7,7.28Z" transform="translate(-156)" fill="#1e4ba8"/>
</svg>
