<svg id="mastercard" xmlns="http://www.w3.org/2000/svg" xmlns:xlink="http://www.w3.org/1999/xlink" width="42.88" height="34.39" viewBox="0 0 42.88 34.39">
  <defs>
    <clipPath id="clip-path">
      <rect id="Rectangle_222" data-name="Rectangle 222" width="42.88" height="34.39" fill="#fff"/>
    </clipPath>
  </defs>
  <g id="Group_45" data-name="Group 45" clip-path="url(#clip-path)">
    <path id="Path_481" data-name="Path 481" d="M894.189,7132.3v-2.278a1.315,1.315,0,0,0-1.4-1.444,1.443,1.443,0,0,0-1.25.639,1.274,1.274,0,0,0-1.176-.639,1.173,1.173,0,0,0-1.03.527v-.458h-.772v3.653h.772v-2.013c0-.653.332-.945.846-.945s.772.334.772.945v2.013h.772v-2.013c0-.653.368-.945.846-.945.515,0,.772.334.772.945v2.013Zm11.434-3.653h-1.25v-1.1H903.6v1.1h-.7v.723h.7v1.679c0,.834.33,1.319,1.214,1.319a1.991,1.991,0,0,0,.955-.263l-.221-.681a1.159,1.159,0,0,1-.661.18c-.368,0-.515-.222-.515-.6v-1.638h1.25Zm6.544-.069a1.024,1.024,0,0,0-.919.527v-.458h-.772v3.653h.772v-2.056c0-.611.257-.944.735-.944a2.757,2.757,0,0,1,.478.07l.221-.75a2.149,2.149,0,0,0-.514-.042Zm-9.89.375a2.469,2.469,0,0,0-1.434-.375c-.882,0-1.47.458-1.47,1.18,0,.6.441.944,1.213,1.056l.368.042c.4.068.625.193.625.375,0,.263-.295.457-.81.457a2.062,2.062,0,0,1-1.176-.374l-.368.6a2.531,2.531,0,0,0,1.508.458c1.029,0,1.618-.485,1.618-1.179,0-.64-.478-.986-1.214-1.1l-.368-.042c-.33-.027-.587-.11-.587-.333,0-.263.257-.417.661-.417a2.435,2.435,0,0,1,1.1.3Zm20.514-.375a1.025,1.025,0,0,0-.919.527v-.458H921.1v3.653h.772v-2.056c0-.611.257-.944.736-.944a2.775,2.775,0,0,1,.478.07l.221-.75A2.159,2.159,0,0,0,922.792,7128.579Zm-9.852,1.9a1.927,1.927,0,0,0,3.125,1.472l-.368-.638a1.484,1.484,0,0,1-.919.333,1.061,1.061,0,0,1-1.065-1.167,1.1,1.1,0,0,1,1.065-1.18,1.478,1.478,0,0,1,.919.333l.368-.639a1.927,1.927,0,0,0-3.125,1.485Zm7.132,0v-1.833H919.3v.458a1.33,1.33,0,0,0-1.1-.527,1.9,1.9,0,0,0,0,3.791,1.239,1.239,0,0,0,1.1-.527v.459h.772Zm-2.831,0a1.072,1.072,0,1,1,2.133,0,1.071,1.071,0,1,1-2.133,0Zm-9.227-1.9a1.9,1.9,0,0,0,.036,3.791,2.241,2.241,0,0,0,1.435-.485l-.368-.569a1.758,1.758,0,0,1-1.029.374,1,1,0,0,1-1.067-.874h2.611v-.307a1.659,1.659,0,0,0-1.618-1.93Zm0,.68a.873.873,0,0,1,.882.875h-1.837A.939.939,0,0,1,908.013,7129.259Zm19.154,1.222v-3.263H926.4v1.888a1.332,1.332,0,0,0-1.1-.527,1.9,1.9,0,0,0,0,3.791,1.24,1.24,0,0,0,1.1-.527v.459h.772Zm-2.831,0a1.072,1.072,0,1,1,2.133,0,1.071,1.071,0,1,1-2.133,0Zm-25.809,0v-1.833h-.772v.458a1.33,1.33,0,0,0-1.1-.527,1.9,1.9,0,0,0,0,3.791,1.237,1.237,0,0,0,1.1-.527v.459h.772Zm-2.867,0a1.072,1.072,0,1,1,2.133,0,1.071,1.071,0,1,1-2.133,0Z" transform="translate(-886.392 -7098.071)"/>
    <path id="Path_482" data-name="Path 482" d="M898.254,7108.337h11.581v21.469H898.254Z" transform="translate(-882.627 -7105.407)" fill="#ff5f00"/>
    <path id="Path_483" data-name="Path 483" d="M903.363,7119.891a13.853,13.853,0,0,1,5.036-10.734,12.922,12.922,0,0,0-8.162-2.93,13.664,13.664,0,0,0,0,27.314,12.915,12.915,0,0,0,8.162-2.916A13.805,13.805,0,0,1,903.363,7119.891Z" transform="translate(-886.999 -7106.226)" fill="#eb001b"/>
    <path id="Path_484" data-name="Path 484" d="M923.834,7119.891a13.432,13.432,0,0,1-13.235,13.65,12.908,12.908,0,0,1-8.161-2.916,13.957,13.957,0,0,0,0-21.469,12.915,12.915,0,0,1,8.161-2.93,13.472,13.472,0,0,1,13.235,13.665Z" transform="translate(-881.001 -7106.226)" fill="#f79e1b"/>
  </g>
</svg>
