<svg xmlns="http://www.w3.org/2000/svg" xmlns:xlink="http://www.w3.org/1999/xlink" width="42.88" height="34.766" viewBox="0 0 42.88 34.766"><defs><clipPath id="a"><rect width="42.88" height="34.766" fill="#fff"/></clipPath></defs><g clip-path="url(#a)"><path d="M894.189,7132.357v-2.3a1.323,1.323,0,0,0-1.4-1.46,1.439,1.439,0,0,0-1.25.646,1.268,1.268,0,0,0-1.176-.646,1.168,1.168,0,0,0-1.03.533v-.464h-.772v3.692h.772v-2.035c0-.66.332-.955.846-.955s.772.337.772.955v2.035h.772v-2.035c0-.66.368-.955.846-.955.515,0,.772.337.772.955v2.035Zm11.434-3.692h-1.25v-1.108H903.6v1.108h-.7v.73h.7v1.7c0,.843.33,1.334,1.214,1.334a1.982,1.982,0,0,0,.955-.267l-.221-.688a1.148,1.148,0,0,1-.661.183c-.368,0-.515-.225-.515-.6V7129.4h1.25Zm6.544-.069a1.02,1.02,0,0,0-.919.533v-.464h-.772v3.692h.772v-2.078c0-.617.257-.954.734-.954a2.758,2.758,0,0,1,.478.07l.221-.759a2.174,2.174,0,0,0-.514-.041Zm-9.89.379a2.452,2.452,0,0,0-1.434-.379c-.882,0-1.47.462-1.47,1.192,0,.6.442.955,1.214,1.067l.368.042c.4.07.625.2.625.379,0,.267-.294.463-.81.463a2.037,2.037,0,0,1-1.176-.379l-.368.6a2.519,2.519,0,0,0,1.508.464c1.029,0,1.618-.491,1.618-1.193,0-.646-.478-1-1.214-1.109l-.368-.042c-.33-.027-.587-.112-.587-.337,0-.267.257-.421.661-.421a2.413,2.413,0,0,1,1.1.309Zm20.514-.379a1.02,1.02,0,0,0-.919.533v-.464H921.1v3.692h.772v-2.078c0-.617.257-.954.736-.954a2.778,2.778,0,0,1,.478.07l.221-.759A2.185,2.185,0,0,0,922.792,7128.6Zm-9.852,1.922a1.8,1.8,0,0,0,1.875,1.91,1.766,1.766,0,0,0,1.25-.422l-.368-.646a1.468,1.468,0,0,1-.919.337,1.067,1.067,0,0,1-1.065-1.18,1.11,1.11,0,0,1,1.065-1.192,1.468,1.468,0,0,1,.919.337l.368-.646a1.766,1.766,0,0,0-1.25-.421A1.8,1.8,0,0,0,912.939,7130.518Zm7.132,0v-1.853H919.3v.464a1.323,1.323,0,0,0-1.1-.533,1.922,1.922,0,0,0,0,3.832,1.236,1.236,0,0,0,1.1-.534v.464h.772Zm-2.831,0a1.073,1.073,0,1,1,2.133,0,1.072,1.072,0,1,1-2.133,0Zm-9.227-1.922a1.921,1.921,0,0,0,.036,3.832,2.232,2.232,0,0,0,1.434-.491l-.368-.576a1.741,1.741,0,0,1-1.029.379,1,1,0,0,1-1.067-.884h2.611v-.31a1.67,1.67,0,0,0-1.618-1.95Zm0,.688c.478,0,.808.309.882.884h-1.837A.943.943,0,0,1,908.013,7129.283Zm19.154,1.234v-3.3h-.772v1.909a1.325,1.325,0,0,0-1.1-.533,1.923,1.923,0,0,0,0,3.832,1.237,1.237,0,0,0,1.1-.534v.464h.772Zm-2.831,0a1.073,1.073,0,1,1,2.133,0,1.072,1.072,0,1,1-2.133,0Zm-25.808,0v-1.853h-.772v.464a1.323,1.323,0,0,0-1.1-.533,1.922,1.922,0,0,0,0,3.832,1.235,1.235,0,0,0,1.1-.534v.464h.772Zm-2.868,0a1.073,1.073,0,1,1,2.133,0,1.072,1.072,0,1,1-2.133,0Z" transform="translate(-886.392 -7097.754)" fill="#fff"/><path d="M898.254,7108.339h11.581v21.7H898.254Z" transform="translate(-882.627 -7105.377)" fill="#ff5f00"/><path d="M903.363,7120.043a14.06,14.06,0,0,1,5.036-10.852,12.835,12.835,0,0,0-8.162-2.962c-7.317,0-13.235,6.177-13.235,13.813a13.511,13.511,0,0,0,13.235,13.8,12.823,12.823,0,0,0,8.162-2.948A14.013,14.013,0,0,1,903.363,7120.043Z" transform="translate(-886.999 -7106.229)" fill="#eb001b"/><path d="M923.834,7120.043a13.512,13.512,0,0,1-13.235,13.8,12.817,12.817,0,0,1-8.161-2.948,14.208,14.208,0,0,0,0-21.7,12.829,12.829,0,0,1,8.161-2.962c7.317,0,13.235,6.219,13.235,13.813Z" transform="translate(-881.001 -7106.229)" fill="#f79e1b"/></g></svg>