<svg xmlns="http://www.w3.org/2000/svg" xmlns:xlink="http://www.w3.org/1999/xlink" width="25.35" height="30.851" viewBox="0 0 25.35 30.851"><defs><clipPath id="a"><rect width="25.35" height="30.851" fill="#fff"/></clipPath></defs><g clip-path="url(#a)"><path d="M915.5,7068.377c-1.379-1.632-3.873-2.317-7.062-2.317h-9.258a1.294,1.294,0,0,0-.861.323,1.371,1.371,0,0,0-.45.822l-3.854,25.239a.817.817,0,0,0,.785.947h5.716l1.435-9.405-.045.3a1.344,1.344,0,0,1,1.3-1.159h2.717c5.335,0,9.513-2.229,10.734-8.7.036-.2.067-.385.095-.559h0C917.12,7071.479,916.755,7069.848,915.5,7068.377Z" transform="translate(-893.998 -7065.974)" fill="#27346a"/><path d="M904.14,7073a1.145,1.145,0,0,1,.5-.112H911.9a14.392,14.392,0,0,1,2.393.186,5.232,5.232,0,0,1,.612.113c.288.062.572.149.851.237a5.982,5.982,0,0,1,1,.449c.362-2.393,0-4.024-1.257-5.494-1.38-1.632-3.873-2.317-7.062-2.317H899.18a1.336,1.336,0,0,0-1.309,1.146l-3.854,25.226a.822.822,0,0,0,.785.96h5.716l2.977-19.5a1.2,1.2,0,0,1,.216-.523A1.163,1.163,0,0,1,904.14,7073Z" transform="translate(-893.998 -7065.974)" fill="#27346a"/><path d="M915.457,7072.891c-1.221,6.467-5.4,8.7-10.734,8.7h-2.717a1.341,1.341,0,0,0-1.3,1.158l-1.786,11.685a.706.706,0,0,0,.687.823h4.818a1.124,1.124,0,0,0,.752-.287,1.168,1.168,0,0,0,.393-.724l.047-.249.908-5.942.058-.324a1.2,1.2,0,0,1,.391-.723,1.131,1.131,0,0,1,.752-.286h.721c4.667,0,8.322-1.956,9.39-7.612.446-2.367.216-4.348-.964-5.73a4.4,4.4,0,0,0-1.319-1.046C915.524,7072.505,915.493,7072.692,915.457,7072.891Z" transform="translate(-892.794 -7064.434)" fill="#2790c3"/><path d="M913.92,7071.989l-.576-.149c-.2-.037-.407-.087-.612-.112a14.367,14.367,0,0,0-2.4-.187h-7.256a1.013,1.013,0,0,0-.5.125,1.042,1.042,0,0,0-.43.361,1.177,1.177,0,0,0-.214.523l-1.543,10.091-.044.3a1.341,1.341,0,0,1,1.3-1.159h2.717c5.335,0,9.513-2.229,10.734-8.694.036-.2.067-.387.095-.561a5.1,5.1,0,0,0-1-.436c-.091-.037-.182-.062-.274-.1" transform="translate(-892.44 -7064.626)" fill="#1f264f"/></g></svg>