<svg xmlns="http://www.w3.org/2000/svg" width="216.03" height="52.34" viewBox="0 0 216.03 52.34">
  <g id="Group_810" data-name="Group 810" transform="translate(-680.001 -508)">
    <g id="paypal-seeklogo.com" transform="translate(680.001 508)">
      <path id="Path_11958" data-name="Path 11958" d="M179.475,386.87h14.763c7.926,0,10.91,4.013,10.449,9.908-.762,9.732-6.646,15.117-14.45,15.117H186.3c-1.071,0-1.791.709-2.081,2.629l-1.673,11.165c-.111.724-.492,1.143-1.063,1.2H172.2c-.873,0-1.181-.667-.953-2.111l5.655-35.794A2.25,2.25,0,0,1,179.475,386.87Z" transform="translate(-160.625 -374.55)" fill="#009ee3" fill-rule="evenodd"/>
      <path id="Path_11959" data-name="Path 11959" d="M329.452,385.13c4.981,0,9.576,2.7,8.947,9.435-.762,8-5.049,12.43-11.813,12.449h-5.91c-.85,0-1.261.694-1.482,2.115l-1.143,7.267c-.171,1.1-.735,1.639-1.566,1.639h-5.5c-.876,0-1.181-.56-.987-1.814l4.539-29.125c.225-1.433.762-1.966,1.741-1.966h13.162ZM320.5,400.723h4.478c2.8-.107,4.66-2.046,4.847-5.544a3.382,3.382,0,0,0-3.666-3.7l-4.215.019-1.444,9.222Zm32.852,15.083c.5-.457,1.014-.694.941-.13l-.179,1.349c-.091.7.187,1.078.842,1.078h4.885c.823,0,1.223-.332,1.425-1.6l3.01-18.893c.152-.949-.08-1.414-.8-1.414H358.1c-.484,0-.72.271-.846,1.01l-.2,1.162c-.1.606-.381.713-.64.1-.911-2.157-3.235-3.125-6.478-3.049-7.534.156-12.613,5.876-13.158,13.208-.419,5.67,3.643,10.125,9,10.125a9.662,9.662,0,0,0,7.583-2.934h0Zm-4.093-2.908a4.91,4.91,0,0,1-5.034-5.758,7.013,7.013,0,0,1,6.745-5.758A4.91,4.91,0,0,1,356,407.14a7.01,7.01,0,0,1-6.745,5.758Zm24.579-16.767h-4.954c-1.021,0-1.437.762-1.113,1.7l6.15,18.009-6.032,8.57c-.507.716-.114,1.368.6,1.368h5.567a1.7,1.7,0,0,0,1.654-.812l18.916-27.132c.583-.835.309-1.711-.648-1.711H388.7c-.9,0-1.265.358-1.783,1.109l-7.888,11.432-3.525-11.459a1.509,1.509,0,0,0-1.669-1.075Z" transform="translate(-246.51 -373.473)" fill="#113984" fill-rule="evenodd"/>
      <path id="Path_11960" data-name="Path 11960" d="M552.118,385.118c4.981,0,9.576,2.7,8.947,9.435-.762,8-5.049,12.43-11.813,12.449h-5.906c-.85,0-1.261.694-1.482,2.115l-1.143,7.267c-.171,1.1-.735,1.639-1.566,1.639h-5.5c-.876,0-1.181-.56-.987-1.814l4.546-29.133c.225-1.433.762-1.966,1.741-1.966h13.162Zm-8.955,15.593h4.478c2.8-.107,4.66-2.046,4.847-5.545a3.382,3.382,0,0,0-3.666-3.7l-4.215.019-1.444,9.222Zm32.852,15.083c.5-.457,1.014-.694.941-.13l-.179,1.349c-.091.7.187,1.078.842,1.078H582.5c.823,0,1.223-.332,1.425-1.6l3.01-18.893c.152-.949-.08-1.414-.8-1.414h-5.365c-.484,0-.72.271-.846,1.01l-.2,1.162c-.1.606-.381.713-.64.1-.911-2.157-3.235-3.125-6.478-3.049-7.534.156-12.613,5.876-13.158,13.208-.419,5.67,3.643,10.125,9,10.125a9.662,9.662,0,0,0,7.583-2.934h0Zm-4.089-2.908a4.91,4.91,0,0,1-5.034-5.758,7.013,7.013,0,0,1,6.745-5.758,4.91,4.91,0,0,1,5.034,5.758,7.013,7.013,0,0,1-6.745,5.758Zm22.533,5.236h-5.64a.667.667,0,0,1-.69-.762l4.954-31.385a.972.972,0,0,1,.937-.762h5.64a.667.667,0,0,1,.69.762L595.4,417.36a.972.972,0,0,1-.937.77Z" transform="translate(-384.327 -373.461)" fill="#009ee3" fill-rule="evenodd"/>
      <path id="Path_11961" data-name="Path 11961" d="M153.1,354.54h14.778c4.161,0,9.1.133,12.4,3.049a10.016,10.016,0,0,1,3.1,8.383c-.907,11.283-7.656,17.605-16.71,17.605h-7.286c-1.242,0-2.062.823-2.412,3.049l-2.035,12.956c-.133.838-.5,1.334-1.143,1.395H144.67c-1.01,0-1.368-.762-1.105-2.446L150.119,357A2.623,2.623,0,0,1,153.1,354.54Z" transform="translate(-143.482 -354.54)" fill="#113984" fill-rule="evenodd"/>
      <path id="Path_11962" data-name="Path 11962" d="M179.43,405.315l2.58-16.336a2.258,2.258,0,0,1,2.572-2.119h14.763a14.4,14.4,0,0,1,5.968,1.086c-1.482,10.045-7.98,15.624-16.485,15.624h-7.275A2.15,2.15,0,0,0,179.43,405.315Z" transform="translate(-165.731 -374.544)" fill="#172c70" fill-rule="evenodd"/>
    </g>
  </g>
</svg>
