<svg xmlns="http://www.w3.org/2000/svg" xmlns:xlink="http://www.w3.org/1999/xlink" width="24" height="24" viewBox="0 0 24 24">
  <defs>
    <clipPath id="clip-path">
      <rect id="Rectangle_1674" data-name="Rectangle 1674" width="24" height="24" fill="#1e4ba8"/>
    </clipPath>
  </defs>
  <g id="Group_820" data-name="Group 820" transform="translate(-49 47)">
    <g id="Group_819" data-name="Group 819" transform="translate(49 -47)" clip-path="url(#clip-path)">
      <path id="Path_11982" data-name="Path 11982" d="M4.941,1.714a1.259,1.259,0,0,1,.893.37L8.477,4.727a1.265,1.265,0,0,1,0,1.787L7.035,7.956c-.693.693.117,1.822,3.651,5.357,2.784,2.785,4.076,3.879,4.838,3.879a.708.708,0,0,0,.519-.226l1.442-1.443a1.265,1.265,0,0,1,1.787,0l2.643,2.643a1.263,1.263,0,0,1,0,1.787L19.971,21.9a1.786,1.786,0,0,1-1.278.388c-2.147,0-6.292-1.806-10.732-6.247C2.306,10.384.923,5.208,2.1,4.029L4.047,2.085a1.258,1.258,0,0,1,.893-.37M4.941,0A2.959,2.959,0,0,0,2.835.872L.891,2.817C-.3,4-.3,6.207.889,9.021a26.44,26.44,0,0,0,5.859,8.231C9.861,20.365,14.858,24,18.693,24a3.373,3.373,0,0,0,2.491-.891l1.944-1.944a2.979,2.979,0,0,0,0-4.211l-2.643-2.643a2.979,2.979,0,0,0-4.211,0l-.952.952A40.981,40.981,0,0,1,11.9,12.1,41.127,41.127,0,0,1,8.737,8.679l.952-.952a2.977,2.977,0,0,0,0-4.211L7.047.873A2.958,2.958,0,0,0,4.941,0" transform="translate(0 0)" fill="#1e4ba8"/>
    </g>
  </g>
</svg>
