<svg id="spei" xmlns="http://www.w3.org/2000/svg" xmlns:xlink="http://www.w3.org/1999/xlink" width="65" height="21.955" viewBox="0 0 65 21.955">
  <defs>
    <clipPath id="clip-path">
      <rect id="Rectangle_1100" data-name="Rectangle 1100" width="65" height="21.955" fill="none"/>
    </clipPath>
  </defs>
  <g id="Group_155" data-name="Group 155" clip-path="url(#clip-path)">
    <path id="Path_1117" data-name="Path 1117" d="M12.206,6.64c1.98-.1,3.86-.252,5.81-.339C17.455,2.182,15.466,0,9.45,0,3.543,0,.978,3.036.639,5.827.258,8.966,2.621,10.977,6.4,12.076c3.264.956,6,1.621,6.084,3.224.092,1.724-1.878,2.692-2.853,2.692-1.743,0-3.64-1.931-3.867-3.7-1.9.151-3.867.159-5.764.31,0,4.808,3.908,7.354,9.089,7.354,4.831,0,9.577-2.032,9.577-7.228,0-6.309-6.826-6.307-11.293-7.861C5.81,6,6.625,4.117,8.095,3.951c2.969-.36,3.478,1.328,4.111,2.689" transform="translate(0 0)" fill="#343084" fill-rule="evenodd"/>
    <path id="Path_1118" data-name="Path 1118" d="M166.206,4.055c3.872,0,6.613,2.133,6.613,6.458,0,3.964-2.728,6.494-6.687,6.494h-4.945V24.6c0,.521,0,.521-.461.521h-5.159c-.646,0-.646,0-.646-.485V4.956c0-.9,0-.9.907-.9ZM161.685,13c-.366,0-.5-.15-.5-.377V8.541a.462.462,0,0,1,.467-.467h2.168c1.866.275,2.549,1.286,2.549,2.6,0,1.886-1.681,2.317-3.141,2.317Z" transform="translate(-135.401 -3.544)" fill="#343084" fill-rule="evenodd"/>
    <path id="Path_1119" data-name="Path 1119" d="M308.137,5.435a.439.439,0,0,1,.4-.466h16.445c.363-.016.4.133.4.274V9a.233.233,0,0,1-.254.254H314.716c-.218,0-.289.224-.289.467v2.537a.509.509,0,0,0,.524.524h9.214l.21.211v3.524l-.316.453h-9.285a.321.321,0,0,0-.347.347V20.7a.473.473,0,0,0,.482.394h10.265a.219.219,0,0,1,.21.21v4.105a.228.228,0,0,1-.2.2H308.3a.179.179,0,0,1-.168-.168Z" transform="translate(-269.311 -4.341)" fill="#ff9400" fill-rule="evenodd"/>
    <path id="Path_1120" data-name="Path 1120" d="M474.071,97.379v9h-5.856a.179.179,0,0,1-.168-.168V98.17a.312.312,0,0,1,.26-.339h1.681c.169,0,.211.144.211.271v3.757c0,.474.4.27.611,0l3.261-4.481" transform="translate(-409.071 -85.109)" fill="#343084" fill-rule="evenodd"/>
    <path id="Path_1121" data-name="Path 1121" d="M466.016,5.443a.439.439,0,0,1,.4-.466h5.375c.372,0,.506.228.506.408v7.683L469,8.463c-.071-.1-.234-.093-.234.113v3.317c0,.185-.091.536-.354.536h-2.145c-.117,0-.256-.264-.256-.415Z" transform="translate(-407.296 -4.35)" fill="#343084" fill-rule="evenodd"/>
  </g>
</svg>
