<svg xmlns="http://www.w3.org/2000/svg" width="32" height="32" viewBox="0 0 32 32"><path d="M77.993,0h-20A6,6,0,0,0,52,6V26A6,6,0,0,0,57.994,32h20A6,6,0,0,0,84,26V6a6,6,0,0,0-6.007-6m-2.03,12.412.01.507a11.193,11.193,0,0,1-17.246,9.432,7.162,7.162,0,0,0,.937.06,7.908,7.908,0,0,0,4.892-1.69,3.945,3.945,0,0,1-3.679-2.734,3.64,3.64,0,0,0,.742.07,3.955,3.955,0,0,0,1.035-.138A3.939,3.939,0,0,1,59.5,14.066v-.05a3.882,3.882,0,0,0,1.778.49,3.935,3.935,0,0,1-1.748-3.272,3.882,3.882,0,0,1,.538-1.983,11.162,11.162,0,0,0,8.114,4.112,3.772,3.772,0,0,1-.1-.9A3.943,3.943,0,0,1,74.9,9.769a7.943,7.943,0,0,0,2.5-.948A3.929,3.929,0,0,1,75.661,11a7.965,7.965,0,0,0,2.264-.625,8.107,8.107,0,0,1-1.962,2.042" transform="translate(-52 -0.004)" fill="#fff"/></svg>