<svg id="VISA" xmlns="http://www.w3.org/2000/svg" xmlns:xlink="http://www.w3.org/1999/xlink" width="85.584" height="26.24" viewBox="0 0 85.584 26.24">
  <defs>
    <clipPath id="clip-path">
      <rect id="Rectangle_491" data-name="Rectangle 491" width="85.584" height="26.24" fill="none"/>
    </clipPath>
  </defs>
  <path id="Path_981" data-name="Path 981" d="M11.158.129l-2.35,25.8h3.759L14.919.129Z" transform="translate(23.433 0.111)" fill="#004790"/>
  <g id="Group_93" data-name="Group 93">
    <g id="Group_92" data-name="Group 92" clip-path="url(#clip-path)">
      <path id="Path_982" data-name="Path 982" d="M32.888,1.068A17.924,17.924,0,0,0,26.678,0c-6.847,0-11.67,3.447-11.711,8.391-.038,3.653,3.444,5.69,6.073,6.9,2.694,1.246,3.6,2.04,3.591,3.153-.017,1.7-2.157,2.482-4.146,2.482A14.552,14.552,0,0,1,13.96,19.6l-.89-.4-.972,5.69a21.922,21.922,0,0,0,7.716,1.356c7.285,0,12.013-3.406,12.067-8.685.024-2.893-1.821-5.091-5.82-6.9-2.42-1.178-3.9-1.962-3.889-3.153,0-1.058,1.256-2.188,3.968-2.188a12.756,12.756,0,0,1,5.186.976l.623.291Z" transform="translate(29.318 0)" fill="#004790"/>
      <path id="Path_983" data-name="Path 983" d="M37.005.136H31.651c-1.66,0-2.9.452-3.629,2.105l-10.291,23.3h7.275s1.191-3.132,1.462-3.82c.794,0,7.86.01,8.873.01.205.89.842,3.81.842,3.81h6.429ZM28.461,16.52c.572-1.465,2.759-7.107,2.759-7.107-.041.068.572-1.472.921-2.427l.469,2.194s1.325,6.066,1.6,7.34Z" transform="translate(42.971 0.329)" fill="#004790"/>
      <path id="Path_984" data-name="Path 984" d="M19.217.134,12.432,17.47l-.722-3.523c-1.263-4.064-5.2-8.463-9.6-10.664l6.2,22.231,7.329-.007L26.557.134Z" transform="translate(5.123 0.325)" fill="#004790"/>
      <path id="Path_985" data-name="Path 985" d="M11.263.13H.089L0,.657c8.7,2.105,14.447,7.192,16.833,13.3L14.4,2.276C13.984.667,12.769.185,11.263.13" transform="translate(0 0.315)" fill="#fc9200"/>
    </g>
  </g>
</svg>
